<?xml version="1.0" encoding="utf-8"?>
<!-- Generator: Adobe Illustrator 27.4.1, SVG Export Plug-In . SVG Version: 6.00 Build 0)  -->
<svg version="1.1" id="katman_1" xmlns="http://www.w3.org/2000/svg" xmlns:xlink="http://www.w3.org/1999/xlink" x="0px" y="0px"
	 viewBox="0 0 566 401" style="enable-background:new 0 0 566 401;" xml:space="preserve">
<style type="text/css">
	.st0{fill-rule:evenodd;clip-rule:evenodd;fill:#060809;}
	.st1{fill-rule:evenodd;clip-rule:evenodd;fill:#4A4AF4;}
</style>
<g>
	<path class="st0" d="M107.3,211.1c-11.3,0-24.4,5.4-31.5,11l6.5,13.6c5.7-5.2,14.9-9.6,23.2-9.6c7.9,0,12.2,2.6,12.2,7.9
		c0,3.6-2.9,5.4-8.3,6.1C89,242.7,73,248.3,73,264c0,12.4,8.9,20,22.7,20c9.9,0,18.7-5.5,22.9-12.7V282H137v-44.9
		C137,218.6,124.1,211.1,107.3,211.1z M100.4,269.6c-5.2,0-7.8-2.5-7.8-6.7c0-7.8,8.7-10.4,24.6-12.1
		C117.3,261.2,110.2,269.6,100.4,269.6z M310.5,224.7v-11.6h-18.4V282h19.7v-33.2c0-15.8,9.5-20.4,16.2-20.4c2.6,0,6.1,0.8,8.4,2.5
		l3.6-18.2c-3-1.3-6.2-1.6-8.8-1.6C321.1,211.1,314.7,215.6,310.5,224.7L310.5,224.7z M431.4,211.1c-10.4,0-18.2,6.2-22.3,12.1
		c-3.8-7.7-11.7-12.1-21.3-12.1c-10.4,0-17.6,5.8-21,12.4v-10.4h-19V282h19.7v-35.5c0-12.7,6.7-18.8,12.9-18.8
		c5.6,0,10.8,3.6,10.8,13V282H411v-35.5c0-12.9,6.5-18.8,13-18.8c5.2,0,10.7,3.8,10.7,12.9V282h19.7v-47.6
		C454.4,218.9,444,211.1,431.4,211.1L431.4,211.1z M206.6,208v5.1h-29.9v-7c0-9.1,5.2-11.7,9.7-11.7c2.6,0,6,0.6,8.8,2.2l6.1-13.9
		c-3.6-2.1-9.5-4-17.4-4c-12.6,0-26.9,7.1-26.9,29.4v5.1h-11.4v15.2H157V282h19.7v-53.7h29.9V282h19.7v-53.7h17.9v-15.2h-17.9v-7
		c0-9.1,5.2-11.7,9.7-11.7c5,0,8.8,2.2,8.8,2.2l6.1-13.9c0,0-6.2-4-17.4-4C221,178.6,206.6,185.7,206.6,208z M255.9,213.1h19.7V282
		h-19.7L255.9,213.1L255.9,213.1z"/>
	<path class="st1" d="M370.7,117c-53.2,0-100.6,36.9-114,84.4H276c11.2-35.4,49.3-66.4,94.7-66.4c55.2,0,102.8,42,102.8,107.4
		c0,14.7-1.9,27.9-5.5,39.6h18.7l0.2-0.6c3.1-12.1,4.6-25.2,4.6-39C491.5,169.5,438.4,117,370.7,117"/>
</g>
</svg>
